<?xml version="1.0" encoding="utf-8"?>
<!-- Generator: Adobe Illustrator 26.0.1, SVG Export Plug-In . SVG Version: 6.00 Build 0)  -->
<svg version="1.1" id="图层_1" xmlns="http://www.w3.org/2000/svg" xmlns:xlink="http://www.w3.org/1999/xlink" x="0px" y="0px"
	 viewBox="0 0 293.5 220" style="enable-background:new 0 0 293.5 220;" xml:space="preserve">
<style type="text/css">
	.st0{fill:url(#SVGID_1_);}
</style>
<linearGradient id="SVGID_1_" gradientUnits="userSpaceOnUse" x1="53" y1="110.7" x2="178.6" y2="110.7">
	<stop  offset="0" style="stop-color:#D1C8CF"/>
	<stop  offset="0.1927" style="stop-color:#A9B2C8"/>
	<stop  offset="0.3196" style="stop-color:#AFAFC5"/>
	<stop  offset="0.4134" style="stop-color:#B7ABC1"/>
	<stop  offset="0.6285" style="stop-color:#999AB6"/>
	<stop  offset="0.8464" style="stop-color:#D4CBD2"/>
	<stop  offset="1" style="stop-color:#BBBCCD"/>
</linearGradient>
<path class="st0" d="M115.8,47.9C81.2,47.9,53,76.1,53,110.7s28.2,62.8,62.8,62.8s62.8-28.2,62.8-62.8S150.4,47.9,115.8,47.9z
	 M58.6,110.7c0-15.6,6.3-29.7,16.4-40l0,0c10.6-10.6,27.8-10.6,38.3,0c2.4,2.4,4.4,5.3,5.7,8.5c2.4,5.6,2.9,12,1.2,18
	c-1.2,4.2-3.7,7.5-6.4,10.9l-0.8,1.1c-1.2,1.5-2.3,3-3.2,4.5c-8.8,13.6-7.4,30.7,3.5,41.6c5.8,5.8,13.2,8.9,20.8,9.5
	c-5.8,1.9-11.9,3-18.3,3C84.2,167.9,58.6,142.3,58.6,110.7z M155.8,151.5l-0.1-0.1c-10.6,10.6-27.7,10.6-38.3,0
	c-9-9-10.1-23.2-2.8-34.5c0.9-1.4,1.9-2.7,3-4.1l0.8-1.1c2.9-3.7,5.8-7.6,7.3-12.9c2-7.2,1.5-14.9-1.4-21.8c-1.6-3.8-4-7.4-7-10.3
	c-6-6-13.7-9.2-21.6-9.5c6.2-2.3,13-3.6,20-3.6c31.5,0,57.2,25.6,57.2,57.2C172.9,126.7,166.4,141.1,155.8,151.5z M161.3,139.7
	v-27.3c0.1-1.4-1-2.6-2.4-2.7c-0.1,0-0.2,0-0.3,0c-1.4-0.1-2.7,1-2.8,2.4c0,0.1,0,0.2,0,0.3v27.5c-0.1,1.5,1.1,2.7,2.5,2.8
	c0.1,0,0.2,0,0.2,0c1.5,0.1,2.7-1.1,2.8-2.5c0-0.1,0-0.2,0-0.2V139.7z M144.2,150.7v-49.3c0.1-1.5-1.1-2.7-2.5-2.8
	c-0.1,0-0.2,0-0.2,0c-1.5-0.1-2.7,1.1-2.8,2.5c0,0.1,0,0.2,0,0.2v49.5c-0.1,1.5,1.1,2.7,2.5,2.8c0.1,0,0.2,0,0.2,0
	c1.5,0.1,2.7-1.1,2.8-2.5c0-0.1,0-0.2,0-0.2V150.7z M124.4,109.5c-1.4-0.1-2.7,1-2.8,2.4c0,0.1,0,0.2,0,0.3v27.5
	c-0.1,1.5,1.1,2.7,2.5,2.8c0.1,0,0.2,0,0.2,0c1.5,0.1,2.7-1.1,2.8-2.5c0-0.1,0-0.2,0-0.2v-27.3c0.1-1.4-1-2.6-2.4-2.7
	c-0.1,0-0.2,0-0.3,0C124.4,109.8,124.4,109.5,124.4,109.5z M115.7,87.8c0,1.3-0.4,2.4-1.3,3.3c-1,1.1-2.2,1.7-3.7,1.7h-15v37.4
	c0,4.1-1.8,6.2-5.3,6.2c-3.9,0-5.9-2.1-5.9-6.3V92.8H70.8c-1.5,0-2.8-0.5-3.7-1.6c-1-1.1-1.4-2.3-1.4-3.6c0-1.4,0.4-2.6,1.3-3.6
	s2.1-1.4,3.7-1.4h40c1.5,0,2.7,0.5,3.6,1.6C115.2,85.2,115.7,86.5,115.7,87.8z"/>
</svg>
